<svg xmlns="http://www.w3.org/2000/svg" viewBox="0 0 512 512">
  <defs>
    <linearGradient id="bg" x1="0" y1="0" x2="1" y2="1">
      <stop offset="0" stop-color="#111827"/>
      <stop offset="1" stop-color="#030712"/>
    </linearGradient>
    <linearGradient id="data" x1="0" y1="0" x2="0" y2="1">
      <stop offset="0" stop-color="#67e8f9"/>
      <stop offset="1" stop-color="#0ea5e9"/>
    </linearGradient>
  </defs>
  <rect x="16" y="16" width="480" height="480" rx="112" fill="url(#bg)"/>
  <ellipse cx="256" cy="150" rx="142" ry="54" fill="url(#data)"/>
  <path d="M114 150v106c0 30 64 54 142 54s142-24 142-54V150c0 30-64 54-142 54s-142-24-142-54Z" fill="#0891b2"/>
  <path d="M114 256v106c0 30 64 54 142 54s142-24 142-54V256c0 30-64 54-142 54s-142-24-142-54Z" fill="#0e7490"/>
  <path d="M218 232h43c67 0 108 34 108 91s-41 91-108 91h-43V232Zm43 132c33 0 52-14 52-41s-19-41-52-41h-3v82h3Z" fill="#ecfeff"/>
  <rect x="16" y="16" width="480" height="480" rx="112" fill="none" stroke="#22d3ee" stroke-width="12" opacity=".55"/>
</svg>
